<?xml version="1.0" encoding="UTF-8"?>
<svg width="314px" height="140px" viewBox="0 0 314 140" version="1.1" xmlns="http://www.w3.org/2000/svg" xmlns:xlink="http://www.w3.org/1999/xlink">
    <title>nike</title>
    <g id="Page-1" stroke="none" stroke-width="1" fill="none" fill-rule="evenodd">
        <g id="-" transform="translate(-6620.000000, -1615.000000)">
            <g id="nike" transform="translate(6620.000000, 1615.000000)">
                <rect id="Rectangle" x="1" y="0" width="312.01" height="140"></rect>
                <path d="M42.1364156,16.876 C39.6364156,21.813 36.8364156,26.623 34.7014156,31.715 C30.4504156,41.872 29.3564156,52.315 33.6854156,62.772 C38.8064156,75.138 52.0734156,82.2 65.3604156,80.648 C83.5204156,78.528 100.860416,73.11 118.360416,68.302 C144.823082,61.0353333 171.272416,53.717 197.708416,46.347 C230.199082,37.347 262.689749,28.3496667 295.180416,19.355 C300.755416,17.811 306.333416,16.282 312.013416,15 C309.741416,15.964 307.473416,16.939 305.196416,17.891 C267.700416,33.571 230.203416,49.2493333 192.705416,64.926 C153.680749,81.2413333 114.655749,97.553 75.6304156,113.861 C68.4824156,116.843 61.3994156,120.093 54.0304156,122.414 C42.2244156,126.133 30.2304156,126.002 18.7854156,120.982 C7.58541561,116.073 1.79241561,106.995 0.30241561,94.933 C-0.94858439,84.804 1.80241561,75.655 6.32541561,66.768 C14.1871718,51.1530708 24.0307649,36.617747 35.6124156,23.522 C37.6734156,21.208 39.8124156,18.966 41.9204156,16.691 L42.1364156,16.876 Z" id="Path" fill="#FFFFFF" fill-rule="nonzero"></path>
            </g>
        </g>
    </g>
</svg>