<svg xmlns="http://www.w3.org/2000/svg" xmlns:xlink="http://www.w3.org/1999/xlink" width="223.354" height="140" viewBox="0 0 223.354 140"><defs><clipPath id="a"><rect width="223.355" height="140" fill="#fff"/></clipPath></defs><g clip-path="url(#a)"><path d="M256.323,139.971q-28.046,0-56.092.028a2.769,2.769,0,0,1-2.833-1.554Q165.091,82.4,132.659,26.433c-.852-1.47-.57-1.985.8-2.77Q153.335,12.307,173.135.82c2.087-1.2,2.085-1.2,3.253.818Q215.84,69.924,255.3,138.2c.287.5.407,1.139,1.019,1.41Z" transform="translate(-32.969 0)" fill="#fff"/><path d="M162.551,155.81h-4.8q-25.706,0-51.411.024a2.5,2.5,0,0,1-2.541-1.411Q85.141,122,66.363,89.649c-.72-1.239-.436-1.64.664-2.271q20.4-11.7,40.738-23.5c.976-.565,1.445-.568,2.059.5q26.036,45.148,52.136,90.261c.173.3.312.619.591,1.172" transform="translate(-16.454 -15.839)" fill="#fff"/><path d="M68.842,171.675H67.129q-27.134,0-54.27.029a2.618,2.618,0,0,1-2.676-1.508Q5.39,161.678.4,153.269c-.614-1.042-.594-1.518.545-2.17q20.473-11.73,40.882-23.574c.79-.457,1.332-.773,1.963.329q12.413,21.62,24.9,43.2a3.488,3.488,0,0,1,.148.625" transform="translate(0 -31.704)" fill="#fff"/></g></svg>