<svg xmlns="http://www.w3.org/2000/svg" width="255.472" height="139.999" viewBox="0 0 255.472 139.999"><path d="M-3046.459-154.659a12.756,12.756,0,0,1,12.576-12.965c7.579,0,12.355,6.555,12.355,12.58a13.509,13.509,0,0,1-.341,2.882h-18.557a6.82,6.82,0,0,0,6.583,4.91,5.872,5.872,0,0,0,5.512-3.056h6.027A12.4,12.4,0,0,1-3033.843-142,12.563,12.563,0,0,1-3046.459-154.659Zm5.855-2.111h13.217a6.4,6.4,0,0,0-6.457-5.6A6.921,6.921,0,0,0-3040.6-156.77Zm-31.414,1.936a12.705,12.705,0,0,1,12.657-12.662,12.533,12.533,0,0,1,12.017,8.745h-6.462a5.941,5.941,0,0,0-5.555-3.485c-3.486,0-6.932,2.579-6.932,7.491a7.164,7.164,0,0,0,7.192,7.493c1.9,0,3.786-.905,5.295-3.316h6.462A12.382,12.382,0,0,1-3059.314-142,12.789,12.789,0,0,1-3072.017-154.834Zm-51.647-.039c0-7.324,5.336-12.623,11.973-12.623a10.184,10.184,0,0,1,7.921,3.843h.088v-3.024h5.253v23.9h-5.253v-2.963a11.87,11.87,0,0,1-8.355,3.739C-3118.194-142-3123.664-146.91-3123.664-154.873Zm5.727.256a7.144,7.144,0,0,0,7.106,7.366c3.963,0,6.975-3.1,6.975-7.531,0-4.958-3.573-7.453-6.975-7.453C-3115.524-162.236-3117.937-158.188-3117.937-154.617Zm-41.452-.256c0-7.324,5.344-12.623,11.972-12.623a10.188,10.188,0,0,1,7.922,3.843h.087v-3.024h5.257v23.9h-5.257v-2.963A11.856,11.856,0,0,1-3147.76-142C-3153.918-142-3159.39-146.91-3159.39-154.873Zm5.726.256a7.146,7.146,0,0,0,7.105,7.366c3.964,0,6.981-3.1,6.981-7.531,0-4.958-3.578-7.453-6.981-7.453C-3151.252-162.236-3153.664-158.188-3153.664-154.617Zm-27.162,8.955v2.886h-5.248V-174.64h5.724v10.12a10.632,10.632,0,0,1,7.452-2.976c7.278,0,12.012,6.339,12.012,12.662,0,4.783-3.145,12.834-11.884,12.834A9.63,9.63,0,0,1-3180.826-145.662Zm.128-9.382c0,5.295,3.835,7.792,7.194,7.792,3.749,0,6.892-2.889,6.892-7.531,0-4.659-3.359-7.453-6.979-7.453A7.148,7.148,0,0,0-3180.7-155.044Zm-73.625.385a12.753,12.753,0,0,1,12.571-12.965c7.58,0,12.362,6.555,12.362,12.58a13.737,13.737,0,0,1-.343,2.882H-3248.3a6.84,6.84,0,0,0,6.59,4.91,5.867,5.867,0,0,0,5.509-3.056h6.031a12.4,12.4,0,0,1-11.54,8.308A12.562,12.562,0,0,1-3254.323-154.659Zm5.854-2.111h13.219a6.4,6.4,0,0,0-6.457-5.6A6.919,6.919,0,0,0-3248.469-156.77Zm168.589,13.994v-11.8c0-1.977,0-7.662-4.822-7.662a4.914,4.914,0,0,0-3.919,2.107c-1.035,1.464-1.035,3.963-1.035,5.986v11.367h-5.724v-23.9h5.295v2.073a8.919,8.919,0,0,1,6.548-2.892,9.74,9.74,0,0,1,7.186,3.322c2.2,2.628,2.2,6.628,2.2,8.482v12.916Zm-51.228,0V-174.64h5.727v31.864Zm-78.322,0-4.479-15.5h-.083l-4.526,15.5h-3.524l-8.613-23.9h6.112l4.35,14.6h.083l3.92-14.6h4.559l3.88,14.6h.085l4.394-14.6h6.115l-8.739,23.9Zm-52.065,0v-11.8c0-1.977,0-7.662-4.823-7.662a4.9,4.9,0,0,0-3.919,2.107c-1.037,1.464-1.037,3.963-1.037,5.986v11.367H-3277v-23.9h5.3v2.073a8.91,8.91,0,0,1,6.546-2.892,9.75,9.75,0,0,1,7.188,3.322c2.2,2.628,2.2,6.628,2.2,8.482v12.916Zm24-54.589,45.644-3.195-6.111,10.5-43.772.047Zm63.627-4.455,31.912-2.249,1.082-1.867-34.61-2.108-3.727-13.972,49.244-2.874,1.071-1.853-88.473-5.581,4.237-7.357,95.233-6.182,1.077-1.852-27.919-1.812,8.89-15.422,30.083-1.93,1.048-1.873-27.827-1.944,6.507-11.3,51.6,0c15.869,0,27.607,5.675,23.047,22.36-1.373,5.055-7.827,17.78-26.742,23.112,4.014.475,14.015,4.906,12.292,16.394-3.06,20.371-29.433,30.067-44.1,30.072l-60.923.028ZM-3115-228.9l-10.594,18.365h10.09c4.677,0,13.057-2.333,15.634-8.992,2.388-6.187-2-9.382-5.065-9.382Zm10.107-17.567,8.8-.058c5.86-.03,11.969-2.71,14.2-8.148,2.061-5.042-.707-9.337-4.382-9.323l-8.513-.01Zm-124.655,35.3,4.242-7.361,45.776-3.473-7.654,13.217Zm24.367-42.315,4.24-7.359,52.035-3.276,3.837,14.588Zm12.191-21.157,4.233-7.359,35.187.026,2.656,9.974Z" transform="translate(3277 282)" fill="#fff"/></svg>