<svg width="180" height="140" viewBox="0 0 180 140" fill="none" xmlns="http://www.w3.org/2000/svg">
<g clip-path="url(#clip0_1051_7617)">
<path d="M21.2501 4.2874C22.4704 3.88065 24.1743 0.285829 25.8343 0.494702C26.5489 0.582649 29.3522 6.24421 29.3522 6.24421C52.1634 7.38752 80.2513 34.9808 83.8901 37.7731C85.638 39.1252 93.0036 46.7546 106.492 52.669C112.033 55.0985 117.596 56.1209 122.752 55.7581C129.655 55.2635 137.351 49.2171 142.078 40.9941C148.014 30.6824 150.554 12.7303 167.692 2.55045C170.078 1.13231 175.53 -2.05575 178.664 1.95681C181.192 5.18885 179.114 10.5756 176.465 13.148C174.816 14.753 171.782 16.3911 166.043 19.1174C164.108 20.0298 160.931 22.4264 159.689 23.3608C153.544 28.077 149.07 38.7075 144.112 50.3714C144.112 50.3714 142.012 56.0989 132.678 62.2662C131.117 63.2886 132.525 64.1461 134.229 66.3557C136.438 69.225 140.836 81.0868 140.264 99.0938C140.165 102.282 141.451 103.667 142.913 106.272C145.442 110.791 150.422 109.812 150.301 115.705C150.136 123.675 155.995 125.368 154.126 129.029C152.752 131.711 153.214 134.294 153.225 136.889C153.225 138.219 153.94 140.154 151.202 140C140.044 139.34 140.792 124.335 140.989 119.19C141.176 118.508 140.66 117.288 140.572 117.233C140.033 116.837 133.052 111.428 132.591 110.956C124.137 102.359 118.563 94.6415 115.452 86.6934C113.385 81.4166 111.263 76.1728 107.647 72.8418C103.601 69.115 98.5882 67.0373 94.2238 67.0153C63.1347 66.8504 56.7586 53.2077 48.2937 46.4028C48.0519 46.2159 47.2713 45.7982 46.8096 45.7652C46.3479 45.8092 45.9631 46.3698 45.6773 46.6227C42.4123 50.0306 39.1143 51.1629 34.695 51.1629C24.1963 51.1629 12.8842 41.9395 10.9164 44.0063C9.38832 45.6003 10.6965 48.8873 7.92621 49.448C3.86967 50.2615 -0.296797 46.2709 0.0439965 42.896C0.648629 36.8386 6.83787 35.0687 12.2576 34.4751C16.7429 33.9694 20.4146 35.2006 21.2611 35.3216C23.7786 35.6514 24.2073 32.6282 23.7896 30.6494C23.3389 28.5387 21.3381 28.0989 19.2823 27.4943C16.7758 26.7578 13.9835 28.8245 12.0927 28.1649C9.88302 27.3954 9.74011 26.2631 7.88224 24.647C5.58463 22.6243 2.89127 22.0966 2.89127 19.2163C2.89127 16.5999 6.09033 16.3801 7.02476 13.9395C7.48648 12.7523 7.34356 11.477 7.73932 10.7515C8.83866 8.77268 10.8614 8.87162 12.4994 7.2556C14.7311 5.05693 15.8304 0.802515 16.9957 0.615629C18.161 0.439735 20.0958 4.70515 21.2501 4.32038V4.2874Z" fill="white"/>
</g>
<defs>
<clipPath id="clip0_1051_7617">
<rect width="179.807" height="140" fill="white"/>
</clipPath>
</defs>
</svg>
