<svg xmlns="http://www.w3.org/2000/svg" width="367.914" height="141" viewBox="0 0 367.914 141"><g transform="translate(-21.216 -60.191)"><path d="M0,115.05C0,77.376,54.757,40.557,82.588,40.557c16.733,0,18.627,12.114,15.752,18.432,12-14.3,20.531-32.382,15.511-41.346C104.342.668,69.839,11.976,45,29.382l-1.265-1.824C59.736,14.159,85.249.008,108.4,0c20.493,0,28.221,12.882,28.226,26.307C136.624,64.318,73.953,140,27.741,140,10.473,140,0,130.148,0,115.05ZM33.721,86.035c-2,7.115,1.841,13.254,9.837,13.254,9.618,0,23.885-8.058,39.246-23.139l4.3-4.753c7.744-10.086,8.751-21.9-4.491-21.9C64.489,49.5,37.865,71.312,33.721,86.035Zm300.54,35.4v-18.82H336.2a10.963,10.963,0,0,0,11.075-11.2c0-12.31-21.316-9.406-21.316-33.755,0-16.6,14.8-30.3,31.406-30.3h9.552V46.166h-9.552A11.436,11.436,0,0,0,345.6,57.654c0,13.416,21.311,10.1,21.311,34.031,0,16.608-13.562,29.749-30.3,29.749Zm-8.576,0a47.042,47.042,0,0,1,0-94.085V46.166c-15.219,0-27.4,12.87-27.4,28.364,0,15.219,12.177,28.084,27.4,28.084H331.5v18.82Zm-68.9,0v-72.5h19.367v72.5Zm-35.416,0v-18.82H223.3a10.952,10.952,0,0,0,11.063-11.2c0-12.31-21.3-9.406-21.3-33.755,0-16.6,14.807-30.3,31.41-30.3h9.544V46.166h-9.544a11.429,11.429,0,0,0-11.76,11.488c0,13.416,21.3,10.1,21.3,34.031,0,16.608-13.559,29.749-30.3,29.749ZM188.294,90.859A11,11,0,1,0,166.3,91c0,6.084,4.149,11.618,10.93,11.618h9.823v18.82h-9.823a30.82,30.82,0,0,1-30.576-30.851c0-16.742,13.966-30.162,30.709-30.162a26.189,26.189,0,0,1,10.929,2.212v-5.12c0-7.47-4.7-11.346-11.9-11.346H164.783V27.35h12.448c17.155,0,30.438,12.452,30.438,30.162V90.859c0,6.777,4.983,11.755,10.929,11.755v18.82A30.18,30.18,0,0,1,188.294,90.859Zm68.491-44.693V27.35h19.367V46.166Z" transform="translate(21.716 60.691)" fill="#fff" stroke="rgba(0,0,0,0)" stroke-miterlimit="10" stroke-width="1"/></g></svg>